<svg height="2526" width="720" xmlns="http://www.w3.org/2000/svg">
<rect height="2526" fill="#555" width="720"></rect>
<text fill="#7f7" font-family="Courier New" font-size="12" xml:space="preserve">
<tspan x="10" y="26">17 megabytes installed</tspan>
<tspan x="10" y="42"></tspan>
<tspan x="10" y="58">node_modules</tspan>
<tspan x="10" y="74">└─┬ sails-test-helper@0.5.0 </tspan>
<tspan x="10" y="90">  ├─┬ commander@2.8.1 </tspan>
<tspan x="10" y="106">  │ └── graceful-readlink@1.0.1 </tspan>
<tspan x="10" y="122">  ├─┬ fs-extra@0.24.0 </tspan>
<tspan x="10" y="138">  │ ├── graceful-fs@4.1.2 </tspan>
<tspan x="10" y="154">  │ ├── jsonfile@2.2.2 </tspan>
<tspan x="10" y="170">  │ ├── path-is-absolute@1.0.0 </tspan>
<tspan x="10" y="186">  │ └─┬ rimraf@2.4.3 </tspan>
<tspan x="10" y="202">  │   └─┬ glob@5.0.15 </tspan>
<tspan x="10" y="218">  │     ├─┬ inflight@1.0.4 </tspan>
<tspan x="10" y="234">  │     │ └── wrappy@1.0.1 </tspan>
<tspan x="10" y="250">  │     ├── inherits@2.0.1 </tspan>
<tspan x="10" y="266">  │     ├─┬ minimatch@3.0.0 </tspan>
<tspan x="10" y="282">  │     │ └─┬ brace-expansion@1.1.1 </tspan>
<tspan x="10" y="298">  │     │   ├── balanced-match@0.2.0 </tspan>
<tspan x="10" y="314">  │     │   └── concat-map@0.0.1 </tspan>
<tspan x="10" y="330">  │     └─┬ once@1.3.2 </tspan>
<tspan x="10" y="346">  │       └── wrappy@1.0.1 </tspan>
<tspan x="10" y="362">  ├─┬ mocha@2.3.3 </tspan>
<tspan x="10" y="378">  │ ├── commander@2.3.0 </tspan>
<tspan x="10" y="394">  │ ├─┬ debug@2.0.0 </tspan>
<tspan x="10" y="410">  │ │ └── ms@0.6.2 </tspan>
<tspan x="10" y="426">  │ ├── diff@1.4.0 </tspan>
<tspan x="10" y="442">  │ ├── escape-string-regexp@1.0.2 </tspan>
<tspan x="10" y="458">  │ ├─┬ glob@3.2.3 </tspan>
<tspan x="10" y="474">  │ │ ├── graceful-fs@2.0.3 </tspan>
<tspan x="10" y="490">  │ │ ├── inherits@2.0.1 </tspan>
<tspan x="10" y="506">  │ │ └─┬ minimatch@0.2.14 </tspan>
<tspan x="10" y="522">  │ │   ├── lru-cache@2.7.0 </tspan>
<tspan x="10" y="538">  │ │   └── sigmund@1.0.1 </tspan>
<tspan x="10" y="554">  │ ├── growl@1.8.1 </tspan>
<tspan x="10" y="570">  │ ├─┬ jade@0.26.3 </tspan>
<tspan x="10" y="586">  │ │ ├── commander@0.6.1 </tspan>
<tspan x="10" y="602">  │ │ └── mkdirp@0.3.0 </tspan>
<tspan x="10" y="618">  │ ├─┬ mkdirp@0.5.0 </tspan>
<tspan x="10" y="634">  │ │ └── minimist@0.0.8 </tspan>
<tspan x="10" y="650">  │ └── supports-color@1.2.0 </tspan>
<tspan x="10" y="666">  ├─┬ node-test-helper@1.0.0 </tspan>
<tspan x="10" y="682">  │ ├── async@1.4.2 </tspan>
<tspan x="10" y="698">  │ ├─┬ chai@2.2.0 </tspan>
<tspan x="10" y="714">  │ │ ├── assertion-error@1.0.0 </tspan>
<tspan x="10" y="730">  │ │ └─┬ deep-eql@0.1.3 </tspan>
<tspan x="10" y="746">  │ │   └── type-detect@0.1.1 </tspan>
<tspan x="10" y="762">  │ ├─┬ commander@2.7.1 </tspan>
<tspan x="10" y="778">  │ │ └── graceful-readlink@1.0.1 </tspan>
<tspan x="10" y="794">  │ ├─┬ fs-extra@0.17.0 </tspan>
<tspan x="10" y="810">  │ │ ├── graceful-fs@3.0.8 </tspan>
<tspan x="10" y="826">  │ │ ├── jsonfile@2.2.2 </tspan>
<tspan x="10" y="842">  │ │ └─┬ rimraf@2.4.3 </tspan>
<tspan x="10" y="858">  │ │   └─┬ glob@5.0.15 </tspan>
<tspan x="10" y="874">  │ │     ├─┬ inflight@1.0.4 </tspan>
<tspan x="10" y="890">  │ │     │ └── wrappy@1.0.1 </tspan>
<tspan x="10" y="906">  │ │     ├── inherits@2.0.1 </tspan>
<tspan x="10" y="922">  │ │     ├─┬ minimatch@3.0.0 </tspan>
<tspan x="10" y="938">  │ │     │ └─┬ brace-expansion@1.1.1 </tspan>
<tspan x="10" y="954">  │ │     │   ├── balanced-match@0.2.0 </tspan>
<tspan x="10" y="970">  │ │     │   └── concat-map@0.0.1 </tspan>
<tspan x="10" y="986">  │ │     ├─┬ once@1.3.2 </tspan>
<tspan x="10" y="1002">  │ │     │ └── wrappy@1.0.1 </tspan>
<tspan x="10" y="1018">  │ │     └── path-is-absolute@1.0.0 </tspan>
<tspan x="10" y="1034">  │ ├── lodash@3.6.0 </tspan>
<tspan x="10" y="1050">  │ ├─┬ mocha@2.2.5 </tspan>
<tspan x="10" y="1066">  │ │ ├── commander@2.3.0 </tspan>
<tspan x="10" y="1082">  │ │ ├─┬ debug@2.0.0 </tspan>
<tspan x="10" y="1098">  │ │ │ └── ms@0.6.2 </tspan>
<tspan x="10" y="1114">  │ │ ├── diff@1.4.0 </tspan>
<tspan x="10" y="1130">  │ │ ├── escape-string-regexp@1.0.2 </tspan>
<tspan x="10" y="1146">  │ │ ├─┬ glob@3.2.3 </tspan>
<tspan x="10" y="1162">  │ │ │ ├── graceful-fs@2.0.3 </tspan>
<tspan x="10" y="1178">  │ │ │ ├── inherits@2.0.1 </tspan>
<tspan x="10" y="1194">  │ │ │ └─┬ minimatch@0.2.14 </tspan>
<tspan x="10" y="1210">  │ │ │   ├── lru-cache@2.7.0 </tspan>
<tspan x="10" y="1226">  │ │ │   └── sigmund@1.0.1 </tspan>
<tspan x="10" y="1242">  │ │ ├── growl@1.8.1 </tspan>
<tspan x="10" y="1258">  │ │ ├─┬ jade@0.26.3 </tspan>
<tspan x="10" y="1274">  │ │ │ ├── commander@0.6.1 </tspan>
<tspan x="10" y="1290">  │ │ │ └── mkdirp@0.3.0 </tspan>
<tspan x="10" y="1306">  │ │ ├─┬ mkdirp@0.5.0 </tspan>
<tspan x="10" y="1322">  │ │ │ └── minimist@0.0.8 </tspan>
<tspan x="10" y="1338">  │ │ └── supports-color@1.2.1 </tspan>
<tspan x="10" y="1354">  │ ├─┬ sinon@1.14.1 </tspan>
<tspan x="10" y="1370">  │ │ ├─┬ formatio@1.1.1 </tspan>
<tspan x="10" y="1386">  │ │ │ └── samsam@1.1.2 </tspan>
<tspan x="10" y="1402">  │ │ ├── lolex@1.1.0 </tspan>
<tspan x="10" y="1418">  │ │ └─┬ util@0.10.3 </tspan>
<tspan x="10" y="1434">  │ │   └── inherits@2.0.1 </tspan>
<tspan x="10" y="1450">  │ └── sinon-chai@2.7.0 </tspan>
<tspan x="10" y="1466">  ├─┬ prompt@0.2.14 </tspan>
<tspan x="10" y="1482">  │ ├── pkginfo@0.3.0 </tspan>
<tspan x="10" y="1498">  │ ├─┬ read@1.0.7 </tspan>
<tspan x="10" y="1514">  │ │ └── mute-stream@0.0.5 </tspan>
<tspan x="10" y="1530">  │ ├── revalidator@0.1.8 </tspan>
<tspan x="10" y="1546">  │ ├─┬ utile@0.2.1 </tspan>
<tspan x="10" y="1562">  │ │ ├── async@0.2.10 </tspan>
<tspan x="10" y="1578">  │ │ ├── deep-equal@1.0.1 </tspan>
<tspan x="10" y="1594">  │ │ ├── i@0.3.3 </tspan>
<tspan x="10" y="1610">  │ │ ├─┬ mkdirp@0.5.1 </tspan>
<tspan x="10" y="1626">  │ │ │ └── minimist@0.0.8 </tspan>
<tspan x="10" y="1642">  │ │ ├── ncp@0.4.2 </tspan>
<tspan x="10" y="1658">  │ │ └─┬ rimraf@2.4.3 </tspan>
<tspan x="10" y="1674">  │ │   └─┬ glob@5.0.15 </tspan>
<tspan x="10" y="1690">  │ │     ├─┬ inflight@1.0.4 </tspan>
<tspan x="10" y="1706">  │ │     │ └── wrappy@1.0.1 </tspan>
<tspan x="10" y="1722">  │ │     ├── inherits@2.0.1 </tspan>
<tspan x="10" y="1738">  │ │     ├─┬ minimatch@3.0.0 </tspan>
<tspan x="10" y="1754">  │ │     │ └─┬ brace-expansion@1.1.1 </tspan>
<tspan x="10" y="1770">  │ │     │   ├── balanced-match@0.2.0 </tspan>
<tspan x="10" y="1786">  │ │     │   └── concat-map@0.0.1 </tspan>
<tspan x="10" y="1802">  │ │     ├─┬ once@1.3.2 </tspan>
<tspan x="10" y="1818">  │ │     │ └── wrappy@1.0.1 </tspan>
<tspan x="10" y="1834">  │ │     └── path-is-absolute@1.0.0 </tspan>
<tspan x="10" y="1850">  │ └─┬ winston@0.8.3 </tspan>
<tspan x="10" y="1866">  │   ├── async@0.2.10 </tspan>
<tspan x="10" y="1882">  │   ├── colors@0.6.2 </tspan>
<tspan x="10" y="1898">  │   ├── cycle@1.0.3 </tspan>
<tspan x="10" y="1914">  │   ├── eyes@0.1.8 </tspan>
<tspan x="10" y="1930">  │   ├── isstream@0.1.2 </tspan>
<tspan x="10" y="1946">  │   └── stack-trace@0.0.9 </tspan>
<tspan x="10" y="1962">  ├─┬ rc@1.1.2 </tspan>
<tspan x="10" y="1978">  │ ├── deep-extend@0.2.11 </tspan>
<tspan x="10" y="1994">  │ ├── ini@1.3.4 </tspan>
<tspan x="10" y="2010">  │ ├── minimist@1.2.0 </tspan>
<tspan x="10" y="2026">  │ └── strip-json-comments@0.1.3 </tspan>
<tspan x="10" y="2042">  ├─┬ sails-factory@0.4.0 </tspan>
<tspan x="10" y="2058">  │ ├── inflection@1.7.1 </tspan>
<tspan x="10" y="2074">  │ ├── lodash@3.10.1 </tspan>
<tspan x="10" y="2090">  │ └─┬ util@0.10.3 </tspan>
<tspan x="10" y="2106">  │   └── inherits@2.0.1 </tspan>
<tspan x="10" y="2122">  ├─┬ supertest@0.15.0 </tspan>
<tspan x="10" y="2138">  │ ├── methods@1.1.1 </tspan>
<tspan x="10" y="2154">  │ └─┬ superagent@0.21.0 </tspan>
<tspan x="10" y="2170">  │   ├── component-emitter@1.1.2 </tspan>
<tspan x="10" y="2186">  │   ├── cookiejar@2.0.1 </tspan>
<tspan x="10" y="2202">  │   ├─┬ debug@2.2.0 </tspan>
<tspan x="10" y="2218">  │   │ └── ms@0.7.1 </tspan>
<tspan x="10" y="2234">  │   ├── extend@1.2.1 </tspan>
<tspan x="10" y="2250">  │   ├─┬ form-data@0.1.3 </tspan>
<tspan x="10" y="2266">  │   │ ├── async@0.9.2 </tspan>
<tspan x="10" y="2282">  │   │ └─┬ combined-stream@0.0.7 </tspan>
<tspan x="10" y="2298">  │   │   └── delayed-stream@0.0.5 </tspan>
<tspan x="10" y="2314">  │   ├── formidable@1.0.14 </tspan>
<tspan x="10" y="2330">  │   ├── methods@1.0.1 </tspan>
<tspan x="10" y="2346">  │   ├── mime@1.2.11 </tspan>
<tspan x="10" y="2362">  │   ├── qs@1.2.0 </tspan>
<tspan x="10" y="2378">  │   ├─┬ readable-stream@1.0.27-1 </tspan>
<tspan x="10" y="2394">  │   │ ├── core-util-is@1.0.1 </tspan>
<tspan x="10" y="2410">  │   │ ├── inherits@2.0.1 </tspan>
<tspan x="10" y="2426">  │   │ ├── isarray@0.0.1 </tspan>
<tspan x="10" y="2442">  │   │ └── string_decoder@0.10.31 </tspan>
<tspan x="10" y="2458">  │   └── reduce-component@1.0.1 </tspan>
<tspan x="10" y="2474">  └─┬ supertest-session@0.0.7 </tspan>
<tspan x="10" y="2490">    ├── cookie@0.1.5 </tspan>
<tspan x="10" y="2506">    └── methods@1.1.1</tspan>
</text>
</svg>
